<svg width="800" height="600" viewBox="0 0 800 600" xmlns="http://www.w3.org/2000/svg">
  <!-- Background -->
  <rect width="800" height="600" fill="#f8fafc"/>
  
  <!-- Title -->
  <text x="400" y="40" text-anchor="middle" font-family="Arial, sans-serif" font-size="24" font-weight="bold" fill="#1e293b">
    Flowchart Symbols Reference
  </text>
  
  <!-- Row 1: Basic Symbols -->
  <g transform="translate(50, 80)">
    <!-- Start/End Oval -->
    <ellipse cx="60" cy="40" rx="50" ry="25" fill="#10b981" stroke="#059669" stroke-width="2"/>
    <text x="60" y="45" text-anchor="middle" font-family="Arial, sans-serif" font-size="12" fill="white">Start/End</text>
    <text x="60" y="85" text-anchor="middle" font-family="Arial, sans-serif" font-size="11" fill="#64748b">Terminal</text>
    
    <!-- Process Rectangle -->
    <rect x="160" y="15" width="100" height="50" rx="5" fill="#3b82f6" stroke="#2563eb" stroke-width="2"/>
    <text x="210" y="45" text-anchor="middle" font-family="Arial, sans-serif" font-size="12" fill="white">Process</text>
    <text x="210" y="85" text-anchor="middle" font-family="Arial, sans-serif" font-size="11" fill="#64748b">Action/Operation</text>
    
    <!-- Decision Diamond -->
    <polygon points="360,15 410,40 360,65 310,40" fill="#f59e0b" stroke="#d97706" stroke-width="2"/>
    <text x="360" y="45" text-anchor="middle" font-family="Arial, sans-serif" font-size="12" fill="white">Decision</text>
    <text x="360" y="85" text-anchor="middle" font-family="Arial, sans-serif" font-size="11" fill="#64748b">Yes/No Choice</text>
    
    <!-- Input/Output Parallelogram -->
    <polygon points="460,15 560,15 540,65 440,65" fill="#8b5cf6" stroke="#7c3aed" stroke-width="2"/>
    <text x="500" y="45" text-anchor="middle" font-family="Arial, sans-serif" font-size="12" fill="white">Input/Output</text>
    <text x="500" y="85" text-anchor="middle" font-family="Arial, sans-serif" font-size="11" fill="#64748b">Data I/O</text>
    
    <!-- Connector Circle -->
    <circle cx="640" cy="40" r="25" fill="#ef4444" stroke="#dc2626" stroke-width="2"/>
    <text x="640" y="45" text-anchor="middle" font-family="Arial, sans-serif" font-size="12" fill="white">A</text>
    <text x="640" y="85" text-anchor="middle" font-family="Arial, sans-serif" font-size="11" fill="#64748b">Connector</text>
  </g>
  
  <!-- Row 2: Advanced Symbols -->
  <g transform="translate(50, 180)">
    <!-- Document -->
    <path d="M10,15 L110,15 L110,55 Q110,65 100,65 Q90,60 80,65 Q70,60 60,65 Q50,60 40,65 Q30,60 20,65 Q10,60 10,55 Z" fill="#06b6d4" stroke="#0891b2" stroke-width="2"/>
    <text x="60" y="45" text-anchor="middle" font-family="Arial, sans-serif" font-size="12" fill="white">Document</text>
    <text x="60" y="85" text-anchor="middle" font-family="Arial, sans-serif" font-size="11" fill="#64748b">Report/File</text>
    
    <!-- Database Cylinder -->
    <ellipse cx="210" cy="20" rx="40" ry="8" fill="#84cc16" stroke="#65a30d" stroke-width="2"/>
    <rect x="170" y="20" width="80" height="40" fill="#84cc16" stroke="none"/>
    <ellipse cx="210" cy="60" rx="40" ry="8" fill="#84cc16" stroke="#65a30d" stroke-width="2"/>
    <line x1="170" y1="20" x2="170" y2="60" stroke="#65a30d" stroke-width="2"/>
    <line x1="250" y1="20" x2="250" y2="60" stroke="#65a30d" stroke-width="2"/>
    <text x="210" y="45" text-anchor="middle" font-family="Arial, sans-serif" font-size="12" fill="white">Database</text>
    <text x="210" y="85" text-anchor="middle" font-family="Arial, sans-serif" font-size="11" fill="#64748b">Data Storage</text>
    
    <!-- Manual Operation -->
    <polygon points="310,15 410,15 390,65 330,65" fill="#f97316" stroke="#ea580c" stroke-width="2"/>
    <text x="360" y="45" text-anchor="middle" font-family="Arial, sans-serif" font-size="12" fill="white">Manual</text>
    <text x="360" y="85" text-anchor="middle" font-family="Arial, sans-serif" font-size="11" fill="#64748b">Manual Task</text>
    
    <!-- Predefined Process -->
    <rect x="460" y="15" width="100" height="50" rx="5" fill="#6366f1" stroke="#4f46e5" stroke-width="2"/>
    <line x1="470" y1="15" x2="470" y2="65" stroke="#4f46e5" stroke-width="2"/>
    <line x1="550" y1="15" x2="550" y2="65" stroke="#4f46e5" stroke-width="2"/>
    <text x="510" y="45" text-anchor="middle" font-family="Arial, sans-serif" font-size="12" fill="white">Subprocess</text>
    <text x="510" y="85" text-anchor="middle" font-family="Arial, sans-serif" font-size="11" fill="#64748b">Predefined</text>
    
    <!-- Delay -->
    <path d="M590,15 Q640,15 640,40 Q640,65 590,65 L590,15 Z" fill="#ec4899" stroke="#db2777" stroke-width="2"/>
    <text x="615" y="45" text-anchor="middle" font-family="Arial, sans-serif" font-size="12" fill="white">Delay</text>
    <text x="615" y="85" text-anchor="middle" font-family="Arial, sans-serif" font-size="11" fill="#64748b">Wait/Pause</text>
  </g>
  
  <!-- Row 3: Flow Examples -->
  <g transform="translate(50, 280)">
    <text x="0" y="20" font-family="Arial, sans-serif" font-size="16" font-weight="bold" fill="#1e293b">
      Example Flow:
    </text>
    
    <!-- Start -->
    <ellipse cx="60" cy="60" rx="40" ry="20" fill="#10b981" stroke="#059669" stroke-width="2"/>
    <text x="60" y="65" text-anchor="middle" font-family="Arial, sans-serif" font-size="11" fill="white">Start</text>
    
    <!-- Arrow 1 -->
    <line x1="100" y1="60" x2="140" y2="60" stroke="#374151" stroke-width="2" marker-end="url(#arrowhead)"/>
    
    <!-- Input -->
    <polygon points="150,40 230,40 220,80 140,80" fill="#8b5cf6" stroke="#7c3aed" stroke-width="2"/>
    <text x="185" y="65" text-anchor="middle" font-family="Arial, sans-serif" font-size="11" fill="white">Enter Data</text>
    
    <!-- Arrow 2 -->
    <line x1="230" y1="60" x2="270" y2="60" stroke="#374151" stroke-width="2" marker-end="url(#arrowhead)"/>
    
    <!-- Decision -->
    <polygon points="280,40 320,60 280,80 240,60" fill="#f59e0b" stroke="#d97706" stroke-width="2"/>
    <text x="280" y="65" text-anchor="middle" font-family="Arial, sans-serif" font-size="11" fill="white">Valid?</text>
    
    <!-- Arrow 3 (Yes) -->
    <line x1="320" y1="60" x2="360" y2="60" stroke="#374151" stroke-width="2" marker-end="url(#arrowhead)"/>
    <text x="340" y="55" text-anchor="middle" font-family="Arial, sans-serif" font-size="10" fill="#059669">Yes</text>
    
    <!-- Process -->
    <rect x="370" y="40" width="80" height="40" rx="5" fill="#3b82f6" stroke="#2563eb" stroke-width="2"/>
    <text x="410" y="65" text-anchor="middle" font-family="Arial, sans-serif" font-size="11" fill="white">Process</text>
    
    <!-- Arrow 4 -->
    <line x1="450" y1="60" x2="490" y2="60" stroke="#374151" stroke-width="2" marker-end="url(#arrowhead)"/>
    
    <!-- End -->
    <ellipse cx="530" cy="60" rx="40" ry="20" fill="#10b981" stroke="#059669" stroke-width="2"/>
    <text x="530" y="65" text-anchor="middle" font-family="Arial, sans-serif" font-size="11" fill="white">End</text>
    
    <!-- Arrow 5 (No - back to input) -->
    <line x1="280" y1="80" x2="280" y2="100" stroke="#374151" stroke-width="2"/>
    <line x1="280" y1="100" x2="185" y2="100" stroke="#374151" stroke-width="2"/>
    <line x1="185" y1="100" x2="185" y2="80" stroke="#374151" stroke-width="2" marker-end="url(#arrowhead)"/>
    <text x="280" y="95" text-anchor="start" font-family="Arial, sans-serif" font-size="10" fill="#dc2626">No</text>
  </g>
  
  <!-- Usage Guidelines -->
  <g transform="translate(50, 420)">
    <text x="0" y="20" font-family="Arial, sans-serif" font-size="16" font-weight="bold" fill="#1e293b">
      Symbol Usage Guidelines:
    </text>
    
    <text x="0" y="45" font-family="Arial, sans-serif" font-size="13" fill="#475569">
      • Use ovals for start/end points
    </text>
    <text x="0" y="65" font-family="Arial, sans-serif" font-size="13" fill="#475569">
      • Use rectangles for processes and actions
    </text>
    <text x="0" y="85" font-family="Arial, sans-serif" font-size="13" fill="#475569">
      • Use diamonds for decisions (Yes/No questions)
    </text>
    <text x="0" y="105" font-family="Arial, sans-serif" font-size="13" fill="#475569">
      • Use parallelograms for input/output operations
    </text>
    <text x="0" y="125" font-family="Arial, sans-serif" font-size="13" fill="#475569">
      • Always use arrows to show flow direction
    </text>
    <text x="0" y="145" font-family="Arial, sans-serif" font-size="13" fill="#475569">
      • Keep symbols consistent throughout your diagram
    </text>
  </g>
  
  <!-- Footer -->
  <text x="400" y="580" text-anchor="middle" font-family="Arial, sans-serif" font-size="12" fill="#64748b">
    FlowChart AI - Master Flowchart Symbols for Professional Diagrams
  </text>
  
  <!-- Arrow marker definition -->
  <defs>
    <marker id="arrowhead" markerWidth="10" markerHeight="7" refX="9" refY="3.5" orient="auto">
      <polygon points="0 0, 10 3.5, 0 7" fill="#374151"/>
    </marker>
  </defs>
</svg>
